<svg width="101" height="49" viewBox="0 0 101 49" fill="none" xmlns="http://www.w3.org/2000/svg">
<g clip-path="url(#clip0)">
<path d="M16.1935 25.1281L11.2888 18.1275H5.88962V25.1281H0V-2.73311e-05H10.9993C13.0112 -0.047744 15.01 0.331827 16.8608 1.11307C18.423 1.77137 19.7553 2.86895 20.6921 4.26949C21.612 5.71901 22.0791 7.40467 22.0348 9.11542C22.1072 10.8134 21.6428 12.4914 20.7062 13.9163C19.7695 15.3412 18.4072 16.4422 16.8085 17.0661L22.5092 25.144L16.1935 25.1281ZM14.7019 5.86757C13.7827 5.11756 12.4426 4.74122 10.6817 4.73857H5.88962V13.4843H10.6737C12.4372 13.4843 13.7773 13.1014 14.6939 12.3354C15.1584 11.9369 15.5243 11.4383 15.7634 10.878C16.0024 10.3177 16.1083 9.71062 16.0728 9.1035C16.0809 7.70418 15.6226 6.62289 14.7019 5.86757Z" fill="white"/>
<path d="M0 23.538H5.88962V44.0428H18.6297V48.7813H0V23.538Z" fill="white"/>
<path d="M38.739 18.855H27.6552C27.832 19.7178 28.339 20.4797 29.0703 20.9818C29.8887 21.5292 30.8608 21.8074 31.8483 21.7769C32.5404 21.7896 33.2288 21.6751 33.8785 21.439C34.4937 21.1967 35.054 20.8359 35.5268 20.3776L37.7862 22.7985C36.4059 24.3622 34.3958 25.1427 31.7558 25.14C30.2393 25.1699 28.7373 24.8429 27.3738 24.1859C26.1567 23.5984 25.1354 22.6782 24.431 21.5344C23.7323 20.3698 23.3746 19.0362 23.3978 17.6823C23.378 16.3354 23.7312 15.0088 24.4189 13.8461C25.0901 12.7172 26.0641 11.794 27.2331 11.1786C28.4511 10.5584 29.8001 10.2314 31.1701 10.2245C32.5401 10.2176 33.8924 10.5309 35.1167 11.1389C36.2651 11.7373 37.2154 12.6494 37.8545 13.7666C38.5375 14.9807 38.8803 16.353 38.8475 17.7419C38.8194 17.7777 38.7912 18.1553 38.739 18.855ZM28.805 14.1959C28.1355 14.7559 27.7047 15.5454 27.5989 16.4062H34.8353C34.7208 15.5527 34.2912 14.7711 33.6293 14.2118C32.9552 13.653 32.0962 13.36 31.2171 13.3889C30.3413 13.3636 29.4854 13.65 28.805 14.1959Z" fill="white"/>
<path d="M44.5239 24.174C43.3225 23.5745 42.3134 22.6564 41.6092 21.5224C40.9246 20.3523 40.5641 19.0242 40.5641 17.6723C40.5641 16.3204 40.9246 14.9924 41.6092 13.8222C42.3131 12.687 43.3222 11.7676 44.5239 11.1667C45.8281 10.5163 47.2726 10.1888 48.7331 10.2126C50.1406 10.1804 51.5325 10.5091 52.7734 11.1667C53.8986 11.7749 54.7858 12.7376 55.2941 13.9017L51.9975 15.6509C51.6965 15.0444 51.2269 14.5353 50.6437 14.1832C50.0606 13.8312 49.3881 13.6508 48.7049 13.6632C48.1964 13.647 47.6899 13.7342 47.2169 13.9196C46.7439 14.1049 46.3144 14.3843 45.9551 14.7405C45.2515 15.5597 44.8651 16.5995 44.8651 17.6743C44.8651 18.7491 45.2515 19.7889 45.9551 20.6081C46.3144 20.9643 46.7439 21.2438 47.2169 21.4291C47.6899 21.6144 48.1964 21.7017 48.7049 21.6854C49.3888 21.7018 50.063 21.523 50.6469 21.1705C51.2308 20.818 51.6997 20.3067 51.9975 19.6978L55.2941 21.4747C54.7714 22.6195 53.8868 23.5654 52.7734 24.17C51.535 24.8353 50.142 25.1683 48.7331 25.136C47.2719 25.1573 45.8274 24.8272 44.5239 24.174Z" fill="white"/>
<path d="M60.3716 24.1741C59.1837 23.5719 58.1895 22.6535 57.5012 21.5225C56.8217 20.3506 56.4641 19.0233 56.4641 17.6724C56.4641 16.3215 56.8217 14.9942 57.5012 13.8223C58.1893 12.69 59.1834 11.7703 60.3716 11.1668C61.6619 10.5392 63.0806 10.2128 64.5185 10.2128C65.9564 10.2128 67.3751 10.5392 68.6654 11.1668C69.8472 11.7749 70.8363 12.6938 71.5237 13.8223C72.201 14.9949 72.5572 16.322 72.5572 17.6724C72.5572 19.0228 72.201 20.3498 71.5237 21.5225C70.8358 22.6495 69.8467 23.567 68.6654 24.1741C67.3751 24.8016 65.9564 25.128 64.5185 25.128C63.0806 25.128 61.6619 24.8016 60.3716 24.1741ZM67.206 20.5962C67.8851 19.7705 68.2558 18.7387 68.2558 17.6744C68.2558 16.6101 67.8851 15.5783 67.206 14.7525C66.8624 14.3938 66.4457 14.1112 65.9834 13.9235C65.5212 13.7357 65.024 13.647 64.5245 13.6633C64.0234 13.6479 63.5246 13.7369 63.0606 13.9245C62.5965 14.1122 62.1776 14.3943 61.831 14.7525C61.1426 15.574 60.7659 16.6075 60.7659 17.6744C60.7659 18.7413 61.1426 19.7747 61.831 20.5962C62.1776 20.9545 62.5965 21.2366 63.0606 21.4242C63.5246 21.6119 64.0234 21.7009 64.5245 21.6855C65.0243 21.7012 65.5217 21.6119 65.9839 21.4235C66.4462 21.235 66.8627 20.9517 67.206 20.5923V20.5962Z" fill="white"/>
<path d="M80.698 10.968C81.6455 10.5912 82.66 10.4074 83.681 10.4273V14.3072C83.2106 14.2715 82.877 14.2516 82.7282 14.2516C82.2066 14.2203 81.684 14.2933 81.1915 14.4661C80.6991 14.6389 80.2468 14.908 79.8618 15.2573C79.1703 15.9278 78.8246 16.9376 78.8246 18.2865V25.1241H74.5873V10.642H78.6557V12.5541C79.1726 11.8465 79.8803 11.2969 80.698 10.968Z" fill="white"/>
<path d="M101 4.92145V24.9015H96.9436V23.2318C95.8903 24.4881 94.3653 25.1162 92.3686 25.1162C91.0608 25.1357 89.7701 24.8207 88.6217 24.2018C87.5117 23.5979 86.6005 22.6913 85.9965 21.59C85.3702 20.372 85.0437 19.0249 85.0437 17.6584C85.0437 16.292 85.3702 14.9448 85.9965 13.7268C86.6029 12.6273 87.5135 11.7213 88.6217 11.115C89.7709 10.4981 91.061 10.1833 92.3686 10.2007C94.2447 10.2007 95.7053 10.7837 96.7506 11.9498V4.92145H101ZM95.7737 20.5803C96.4599 19.7578 96.8352 18.7247 96.8352 17.6584C96.8352 16.5921 96.4599 15.5591 95.7737 14.7366C95.4315 14.3803 95.0174 14.0992 94.5582 13.9115C94.099 13.7239 93.605 13.6338 93.1083 13.6473C92.6066 13.6318 92.1071 13.7208 91.6424 13.9084C91.1777 14.0961 90.7581 14.3782 90.4107 14.7366C89.7245 15.5591 89.3492 16.5921 89.3492 17.6584C89.3492 18.7247 89.7245 19.7578 90.4107 20.5803C90.7581 20.9386 91.1777 21.2208 91.6424 21.4084C92.1071 21.5961 92.6066 21.685 93.1083 21.6695C93.6034 21.684 94.0961 21.5956 94.5545 21.41C95.0129 21.2244 95.4269 20.9458 95.7697 20.5922L95.7737 20.5803Z" fill="white"/>
<path d="M20.3866 37.9167L24.6319 37.8929V48.7813H20.3866V37.9167Z" fill="white"/>
<path d="M33.4362 34.6172H39.1811V37.8492H33.5528V48.7813H29.2954V37.8492H27.036V34.6172H29.2954V33.9732C29.2954 32.3195 29.7899 31.0089 30.7788 30.0416C31.7678 29.0743 33.1615 28.5893 34.9599 28.5866C35.5702 28.5839 36.1787 28.6519 36.773 28.7894C37.2799 28.8971 37.7633 29.0937 38.2002 29.3698L37.0825 32.4109C36.581 32.0649 35.9813 31.8853 35.3699 31.8981C34.0781 31.8981 33.4335 32.5991 33.4362 34.001V34.6172Z" fill="white"/>
<path d="M49.5694 48.0817C49.107 48.4091 48.5837 48.6428 48.0296 48.7694C47.4023 48.9229 46.7582 48.999 46.112 48.996C44.3672 48.996 43.0191 48.5574 42.0676 47.6801C41.1162 46.8029 40.6405 45.5096 40.6405 43.8002V37.8372H38.3771V34.6172H40.6405V31.0911H44.8858V34.6172H48.5362V37.8491H44.8858V43.7485C44.8544 44.2625 45.0259 44.7684 45.3642 45.1598C45.5402 45.3325 45.7512 45.4665 45.9834 45.5528C46.2155 45.6391 46.4635 45.6759 46.711 45.6607C47.3284 45.6765 47.9332 45.486 48.4276 45.12L49.5694 48.0817Z" fill="white"/>
<path d="M22.5092 36.5572C23.8303 36.5572 24.9012 35.4982 24.9012 34.1919C24.9012 32.8855 23.8303 31.8265 22.5092 31.8265C21.1881 31.8265 20.1172 32.8855 20.1172 34.1919C20.1172 35.4982 21.1881 36.5572 22.5092 36.5572Z" fill="white"/>
</g>
<defs>
<clipPath id="clip0">
<rect width="101" height="49" fill="white"/>
</clipPath>
</defs>
</svg>
